<?xml version="1.0" encoding="utf-8"?>
<!-- Generator: Adobe Illustrator 17.0.0, SVG Export Plug-In . SVG Version: 6.00 Build 0)  -->
<svg version="1.2" baseProfile="tiny" id="Layer_1" xmlns="http://www.w3.org/2000/svg" xmlns:xlink="http://www.w3.org/1999/xlink"
	 x="0px" y="0px" width="32px" height="32px" viewBox="0 0 32 32" xml:space="preserve">
<g>
	<g>
		<path fill="#4A595D" d="M16.458,22.129l-5.419-5.419c-0.188-0.188-0.293-0.442-0.293-0.707s0.105-0.52,0.293-0.707l5.423-5.423
			l1.414,1.414l-4.716,4.716l4.712,4.712L16.458,22.129z"/>
	</g>
	<g>
		<path fill="#4A595D" d="M16.002,32C7.178,32,0,24.823,0,16.002C0,7.178,7.178,0,16.002,0C24.824,0,32,7.178,32,16.002
			C32,24.823,24.824,32,16.002,32z M16.002,2C8.281,2,2,8.281,2,16.002C2,23.721,8.281,30,16.002,30C23.721,30,30,23.721,30,16.002
			C30,8.281,23.721,2,16.002,2z"/>
	</g>
</g>
</svg>
