<?xml version="1.0" encoding="utf-8"?>
<!-- Generator: Adobe Illustrator 17.0.0, SVG Export Plug-In . SVG Version: 6.00 Build 0)  -->
<svg version="1.2" baseProfile="tiny" id="Layer_1" xmlns="http://www.w3.org/2000/svg" xmlns:xlink="http://www.w3.org/1999/xlink"
	 x="0px" y="0px" width="32px" height="32px" viewBox="0 0 32 32" overflow="visible" xml:space="preserve">
<g>
	<g>
		<path fill="#4A595D" d="M15.542,22.129l-1.414-1.414l4.712-4.712l-4.717-4.716l1.414-1.414l5.424,5.423
			c0.188,0.188,0.293,0.442,0.293,0.707s-0.105,0.52-0.293,0.707L15.542,22.129z"/>
	</g>
	<g>
		<path fill="#4A595D" d="M15.998,32C7.177,32,0,24.823,0,16.002C0,7.178,7.177,0,15.998,0C24.821,0,32,7.178,32,16.002
			C32,24.823,24.821,32,15.998,32z M15.998,2C8.279,2,2,8.281,2,16.002C2,23.721,8.279,30,15.998,30C23.719,30,30,23.721,30,16.002
			C30,8.281,23.719,2,15.998,2z"/>
	</g>
</g>
</svg>
